<svg width="96" height="273" viewBox="0 0 96 273" fill="none" xmlns="http://www.w3.org/2000/svg">
<path d="M80.1186 119.591C77.5239 114.368 74.4575 85.2374 74.4575 85.2374C74.4575 85.2374 76.3445 67.7592 73.514 52.29C70.6835 36.8208 58.182 40.6379 58.182 40.6379C49.4545 43.0487 57.0026 70.3709 58.4179 79.6122C61.2484 96.8895 70.9194 117.18 73.2781 121.801C73.2781 123.609 72.8064 126.221 73.2781 128.029C75.401 138.475 69.2682 137.672 73.7499 138.275C76.3445 138.475 81.298 131.444 80.3544 126.02C80.3544 123.207 81.0621 120.395 80.1186 119.591Z" fill="#E6A376"/>
<path d="M63.6077 37.8253C77.2886 38.428 80.355 79.0096 77.5245 90.8626C77.5245 90.8626 71.1558 97.6932 60.3054 92.8716C60.3054 92.8716 40.7275 36.8208 63.6077 37.8253Z" fill="#D6D6D6"/>
<path d="M81.9956 232.188C100.63 241.429 100.63 256.095 82.2315 265.336C63.833 274.577 33.6407 274.577 15.0064 265.336C-3.62798 256.095 -3.62798 241.429 14.7705 232.188C33.1689 222.946 63.3613 222.946 81.9956 232.188Z" fill="#02BE29"/>
<path d="M47.567 229.081C47.567 229.081 41.4342 234.505 45.9159 238.121C50.3975 241.737 54.8792 243.345 57.238 246.358C59.5968 249.372 70.683 253.591 75.6364 248.97C75.6364 248.97 77.7593 244.148 69.7395 238.925C61.7197 233.701 61.012 230.286 58.8891 227.875C57.0021 225.866 47.567 229.081 47.567 229.081Z" fill="#4F362B"/>
<path d="M47.4488 227.489C47.4488 227.489 41.316 232.913 45.7977 236.529C50.2794 240.145 54.761 241.752 57.1198 244.766C59.4786 247.779 70.5648 251.998 75.5183 247.377C75.5183 247.377 77.6412 242.556 69.6213 237.333C61.6015 232.109 60.8939 228.694 58.771 226.283C56.8839 224.274 47.4488 227.489 47.4488 227.489Z" fill="#D99E45"/>
<path d="M74.9294 118.386C74.9294 118.386 78.4676 130.44 71.3913 171.825C65.2584 207.384 63.1355 228.88 63.6073 232.095C63.6073 232.095 55.3516 238.523 46.3882 232.697C40.0196 228.478 47.3318 145.708 47.3318 145.708C47.3318 145.708 69.5042 128.431 74.9294 118.386Z" fill="#2D2931"/>
<path d="M24.2155 244.349C24.2155 244.349 22.5644 251.783 27.7537 256.805C32.943 261.627 36.9529 266.649 42.3781 262.631C47.8033 258.613 39.3117 244.55 38.6041 243.345C38.3682 242.139 24.2155 244.349 24.2155 244.349Z" fill="#3B2727"/>
<path d="M25.3444 243.225C25.3444 243.225 23.6933 250.658 28.8826 255.681C34.0719 260.502 38.0818 265.525 43.507 261.507C48.9322 257.489 40.4406 243.426 39.733 242.22C39.4971 241.015 25.3444 243.225 25.3444 243.225Z" fill="#D99E45"/>
<path d="M19.4977 197.942C18.7901 211 19.026 230.286 22.3283 245.354C23.0359 249.171 40.4908 247.966 41.1985 245.354C44.029 231.09 48.2748 173.633 49.4542 167.807C46.1519 167.807 49.4542 167.807 49.4542 167.807C50.1618 164.593 51.5771 152.137 54.1717 148.119C57.0023 143.699 74.4572 123.408 74.929 119.39C74.6931 119.591 20.4412 120.395 19.2619 122.806C12.8932 136.467 19.4977 194.928 19.4977 197.942Z" fill="#0C2937"/>
<path d="M19.4977 197.942C18.7901 211 19.026 230.286 22.3283 245.354C23.0359 249.171 40.4908 247.966 41.1985 245.354C44.029 231.09 48.2748 173.633 49.4542 167.807C46.1519 167.807 49.4542 167.807 49.4542 167.807C50.1618 164.593 51.5771 152.137 54.1717 148.119C57.0023 143.699 74.4572 123.408 74.929 119.39C74.6931 119.591 20.4412 120.395 19.2619 122.806C12.8932 136.467 19.4977 194.928 19.4977 197.942Z" fill="#2D2931"/>
<path d="M32.7063 42.2451C30.1116 43.2496 27.2811 44.8568 22.7994 47.2676C16.9025 50.482 10.7697 55.1027 9.82616 56.1072C8.64677 57.3126 4.40097 60.326 14.3078 76.5988C14.3078 76.5988 29.6399 94.6797 22.7994 112.761C19.0254 122.806 19.0254 122.806 19.0254 122.806C19.0254 122.806 31.9987 140.083 59.1246 129.636C64.5498 127.426 74.6925 123.609 74.6925 118.386C74.6925 118.386 70.6826 100.104 73.749 81.6213C76.3436 65.7503 73.2772 39.8344 60.7757 37.4236C61.0116 37.4236 53.6994 34.2092 32.7063 42.2451Z" fill="#EAEAEA"/>
<path d="M53.4648 55.7056C53.4648 55.7056 56.0595 100.707 55.116 110.752L61.2488 116.98L66.4381 108.743L56.2954 55.1029L53.4648 55.7056Z" fill="#0C2937"/>
<path d="M53.4646 48.674L51.8135 53.4954L53.4646 55.7053L56.2951 55.3034L57.0027 51.2856L53.4646 48.674Z" fill="#0C2937"/>
<path d="M27.5166 27.3785C27.5166 27.3785 36.2441 35.4145 31.9983 42.2451C29.6395 46.0622 38.6028 53.0937 50.8685 50.6829C50.8685 50.6829 56.2937 48.6739 55.3501 47.0667C53.2273 43.4505 54.6425 40.8388 56.0578 37.6244C57.2372 34.41 27.5166 27.3785 27.5166 27.3785Z" fill="#E6A376"/>
<path d="M31.9991 42.2451C31.7632 42.6469 31.5274 43.2496 31.5274 43.8523C35.3014 39.0308 44.2648 37.4236 44.2648 37.4236L30.1121 27.9813C29.6403 27.7804 29.1686 27.7804 28.6968 27.5795L28.4609 28.584C31.0556 31.3966 35.3014 37.0218 31.9991 42.2451Z" fill="#DD9569"/>
<path d="M23.7433 22.5575C23.7433 22.5575 29.1684 34.0088 40.0188 38.0267C49.6898 41.6429 60.0684 43.2501 60.3043 34.2096C60.3043 27.1782 60.7761 8.89641 52.9921 6.48562C42.8494 3.27124 38.3677 -1.75126 28.2249 3.07032C28.2249 3.27121 16.9028 9.9009 23.7433 22.5575Z" fill="#EFB185"/>
<path d="M23.7435 22.5574C23.7435 22.5574 27.0458 32.6024 40.0191 38.2276C42.8496 39.4329 46.1519 40.2366 48.7466 40.6384C43.5573 38.4285 43.0855 37.6249 38.8397 34.6114C34.5939 31.5979 43.5573 31.7988 36.0092 23.7628C33.4145 21.1511 42.142 18.3385 44.2649 17.9368C57.4741 15.7269 57.0023 12.1107 56.7664 9.49899C56.2947 8.29359 55.587 9.69987 54.8794 8.69537L53.2283 6.88729C52.9924 6.68639 52.7565 6.4855 52.7565 6.4855C51.1054 5.07921 49.2183 4.07469 47.5672 3.07019C41.9061 4.07469 26.1023 6.68638 25.6306 6.68638C25.3947 6.68638 23.2718 10.3026 21.3848 13.7179C21.3848 16.5304 22.0924 19.3431 23.7435 22.5574Z" fill="#E6A376"/>
<path d="M32.235 34.0084C32.235 33.0039 24.9228 27.1778 26.8098 24.7671C28.9327 21.9545 35.5373 29.9904 35.7732 30.3922C36.245 30.794 36.0091 27.9814 34.5938 25.9725C33.1786 23.7626 32.7068 20.7491 34.3579 18.941C35.7732 17.3338 40.9625 17.3338 44.0289 17.1329C41.4343 16.1284 36.245 16.3293 33.8862 13.115C30.5839 8.69519 26.8099 7.08801 23.5076 6.68622C9.35489 17.5347 32.235 34.0084 32.235 34.0084Z" fill="#CC9541"/>
<path d="M44.265 16.932C44.265 16.932 34.8299 16.7311 29.8765 10.5033C28.933 9.09696 26.3383 7.08796 23.5078 7.28886C23.5078 7.28886 24.6872 -0.747107 39.0757 0.0564885C44.7368 0.458286 51.3414 3.47179 52.7566 4.47629C66.9093 14.7221 51.8131 16.3293 44.265 16.932Z" fill="#D99E45"/>
<path d="M32.9422 39.8345C32.9422 39.8345 33.414 48.8749 53.4636 49.2767L51.1048 56.71C51.1048 56.71 34.8293 59.5226 27.7529 44.6561L32.9422 39.8345Z" fill="#F9F8F8"/>
<path d="M53.4648 49.2765C53.4648 49.2765 54.1725 47.4684 53.7007 44.0531C53.7007 43.2495 53.7007 42.245 53.9366 41.6424L54.1725 40.8387L56.0595 40.437C56.0595 40.437 63.3717 47.0666 61.4847 53.0935L53.4648 49.2765Z" fill="#F9F8F8"/>
<path d="M46.3886 232.697C48.7474 234.304 51.342 234.907 53.4649 235.108C53.7008 226.871 54.4084 204.973 55.8237 191.915C57.7107 175.441 63.1359 137.27 63.1359 137.27L46.6245 153.744C45.2092 174.437 41.4352 229.282 46.3886 232.697Z" fill="#201D23"/>
<path d="M51.1059 36.8209C46.8601 36.8209 36.0097 26.776 34.8304 25.7715C31.9998 22.9589 36.0097 35.2137 47.3319 40.0352C47.3319 40.0352 59.3616 43.6514 60.541 36.2182C60.541 36.2182 60.3051 23.1598 60.0693 24.767C59.5975 28.5841 62.1922 36.8209 51.1059 36.8209Z" fill="#CC9541"/>
<path d="M10.0625 56.1075C8.8831 57.3129 4.6373 60.3264 14.5442 76.5992C14.5442 76.5992 29.8762 94.68 23.0358 112.761C19.2617 122.806 19.2617 122.806 19.2617 122.806C19.2617 122.806 24.2151 129.636 34.8296 132.047C43.0853 109.948 33.8861 75.7956 31.7632 63.1389C30.348 54.2994 23.7434 50.6832 19.7335 49.2769C14.78 52.0895 10.7701 55.3039 10.0625 56.1075Z" fill="#D8D8D8"/>
<path d="M14.0729 53.8979C14.0729 53.8979 25.395 50.0808 25.6309 66.7554C25.8668 83.43 20.6774 101.712 20.6774 101.712C20.6774 101.712 21.1492 135.262 23.0362 140.887C23.0362 140.887 23.7438 143.298 26.3385 145.709C27.282 146.512 28.4614 147.918 28.9332 151.535C29.169 152.74 29.8767 154.95 31.2919 156.155C32.7072 157.361 31.2919 158.767 30.3484 158.365C29.169 157.963 26.5744 156.356 25.6309 152.941C25.6309 152.941 22.5645 156.959 26.5744 164.191C27.282 165.397 24.6874 165.598 19.7339 161.78C18.7904 161.178 15.0164 156.557 15.2522 150.128C15.4881 145.307 14.7805 143.097 13.6011 138.878C12.4217 134.659 4.40185 112.56 4.40185 93.274C4.40185 83.6309 4.16598 55.3042 14.0729 53.8979Z" fill="#E6A376"/>
<path d="M16.4317 52.4912C-0.315577 52.893 -1.02321 97.2917 2.51495 109.346C2.51495 109.346 10.5348 115.172 21.621 109.948C21.621 109.948 35.7737 51.8885 16.4317 52.4912Z" fill="#EAEAEA"/>
</svg>
