<svg width="112" height="262" viewBox="0 0 112 262" fill="none" xmlns="http://www.w3.org/2000/svg">
<path d="M48.7927 261.151C21.8454 261.151 0.000350952 250.408 0.000350952 237.155C0.000350952 223.903 21.8454 213.16 48.7927 213.16C75.7399 213.16 97.585 223.903 97.585 237.155C97.585 250.408 75.7399 261.151 48.7927 261.151Z" fill="#02BE29"/>
<path d="M104.1 97.7915L101.466 97.9097L103.684 86.562L106.317 87.3894C106.317 87.2712 108.397 93.1815 104.1 97.7915Z" fill="#E6F5FF"/>
<path d="M53.0884 37.0341C53.0884 37.0341 64.4548 35.3792 73.3261 46.0177C78.039 51.8097 80.5341 62.921 82.0588 69.1858C83.3063 74.3869 84.6925 82.7794 101.465 85.3799C102.851 85.6163 103.821 86.4438 104.099 87.6258C104.514 90.2263 104.792 94.7181 102.019 97.555C101.465 98.1461 100.495 98.5007 99.5242 98.5007C92.0391 98.3825 88.9895 97.555 81.0885 95.0727C66.534 90.4627 52.5339 39.28 53.0884 37.0341Z" fill="#2E3B45"/>
<path d="M50.4569 221.552C50.4569 221.552 49.3479 223.68 49.2093 224.507C49.0707 225.453 50.1796 226.044 54.8925 227.463C59.4668 228.763 61.4074 231.6 66.952 233.018C72.3579 234.437 80.3976 233.373 80.259 230.772L69.0312 228.881L50.4569 221.552Z" fill="#3B2727"/>
<path d="M63.7635 217.652C63.7635 217.652 72.6348 225.453 79.2883 229.236C80.5359 229.945 80.12 231.718 78.5953 231.836C76.3774 232.191 73.6052 232.427 70.417 232.427C63.2091 232.427 63.9021 228.763 56.9714 226.517C50.0407 224.271 48.1001 225.926 52.1199 216.942L63.7635 217.652Z" fill="#573A3A"/>
<path d="M66.8137 220.252C65.982 220.843 65.4275 221.198 64.7345 221.552C64.4572 221.789 64.0414 221.907 63.7642 222.143C63.3483 222.38 63.0711 222.616 62.6552 222.852C63.6255 223.207 64.7345 222.971 65.5661 222.498C65.982 222.261 66.3978 221.907 66.6751 221.552C66.8137 221.198 66.9523 220.725 66.8137 220.252Z" fill="#3B2727"/>
<path d="M64.7334 218.479C64.7334 219.425 64.872 220.252 65.1492 220.961C65.4264 221.789 65.7037 222.498 66.3967 223.325C66.8126 222.38 66.674 221.552 66.3967 220.725C66.1195 219.779 65.7037 219.07 64.7334 218.479Z" fill="#3B2727"/>
<path d="M72.6357 123.324C72.6357 123.324 69.7248 155.121 68.4773 165.287C67.2298 175.452 65.4278 217.652 65.4278 217.652C65.4278 217.652 57.804 220.37 50.1802 217.652C50.1802 217.652 44.6356 198.621 45.6059 188.1C46.5762 177.58 47.6851 178.289 47.5465 173.797C47.4079 169.306 46.299 143.537 46.0218 132.899L72.6357 123.324Z" fill="#202930"/>
<path d="M24.6742 230.299C24.6742 230.299 23.9811 231.127 23.5652 233.727C23.1494 236.328 22.5949 240.347 21.7633 243.42C20.9316 246.375 19.5454 248.385 22.8722 251.458C26.1989 254.532 30.6346 256.896 34.3772 256.423C38.1198 255.832 41.1693 252.522 39.6445 248.74L24.6742 230.299Z" fill="#3B2727"/>
<path d="M35.347 230.3C29.5252 232.782 24.6737 230.3 24.6737 230.3C24.6737 230.3 24.5351 232.9 23.4262 239.047C22.7331 243.066 20.5153 246.257 22.7331 249.331C25.0895 252.404 30.6341 256.186 34.5153 255.241C38.3965 254.177 40.4757 250.276 39.2282 247.912C38.1193 245.312 35.7629 236.919 35.347 230.3Z" fill="#573A3A"/>
<path d="M25.9217 240.111C27.4465 239.756 28.8326 239.401 30.3574 239.283C31.0504 239.165 31.7435 239.165 32.5752 239.047C33.2683 238.929 34.1 239.047 34.9316 238.929C34.2386 238.456 33.5455 238.219 32.7138 238.101C31.8821 237.983 31.0504 237.983 30.2188 238.101C29.3871 238.219 28.5554 238.456 27.8623 238.81C27.1692 239.047 26.4762 239.52 25.9217 240.111Z" fill="#3B2727"/>
<path d="M25.9216 236.801C27.3078 237.746 28.8325 238.337 30.3573 238.928C31.8821 239.519 33.2682 240.11 34.793 240.82C34.3771 240.11 33.8227 239.519 33.1296 239.047C32.4365 238.574 31.7435 238.219 30.9118 237.865C30.0801 237.51 29.387 237.274 28.4167 237.037C27.7236 236.919 26.8919 236.801 25.9216 236.801Z" fill="#3B2727"/>
<path d="M24.1192 123.324C24.1192 123.324 18.9905 140.818 21.7628 174.388C21.7628 174.388 15.941 198.502 21.7628 231.363C21.7628 231.363 28.5549 235.619 39.3668 231.363C39.3668 231.363 40.8916 198.384 41.3074 190.937C41.7233 183.49 41.7233 178.644 42.9708 174.388C44.2183 170.133 51.8421 142.355 51.8421 142.355C51.8421 142.355 71.8026 132.898 73.8818 123.324H24.1192Z" fill="#2E3B45"/>
<path d="M23.1489 128.052C29.6638 130.298 38.5351 131.716 48.2382 131.716C56.8323 131.716 64.7333 130.653 70.9709 128.88C72.4957 127.106 73.466 125.215 73.8818 123.324H24.2578C24.1192 123.324 23.7034 124.861 23.1489 128.052Z" fill="#573A3A"/>
<path d="M63.486 130.889L61.684 131.125C59.882 131.362 58.08 130.298 57.8028 128.761C57.5256 127.225 58.7731 125.688 60.5751 125.452L62.3771 125.215C64.1791 124.979 65.9811 126.043 66.2583 127.579C66.5355 129.116 65.288 130.653 63.486 130.889Z" fill="white"/>
<path d="M74.5751 116.113C75.9613 95.782 73.8821 68.7131 73.8821 68.7131C73.8821 68.7131 74.8524 51.2187 68.1989 44.2446C61.4068 37.2705 54.476 36.4431 54.476 36.4431L32.8522 39.1618C25.5056 41.9987 21.6244 42.9444 21.6244 42.9444C21.6244 42.9444 23.2878 56.0651 24.3967 67.8856C25.9215 83.6069 27.5848 97.6733 25.9215 108.903C25.367 112.331 24.8125 112.331 24.3967 115.877C24.3967 115.877 20.5155 119.778 23.2878 124.624C57.5256 129.589 72.9118 123.56 73.7435 124.624C73.8821 124.624 76.2385 120.96 74.5751 116.113Z" fill="#BFE6FF"/>
<path d="M54.4761 36.2066C54.4761 36.2066 64.1791 46.9633 66.5356 57.2471C68.892 67.531 70.4168 107.13 68.1989 131.598C68.1989 131.598 72.496 132.544 76.9316 128.052C76.9316 128.052 76.793 98.0279 76.1 86.4438C75.1297 71.6681 77.9019 38.0979 54.4761 36.2066Z" fill="#435663"/>
<path d="M69.0303 89.3989C69.0303 89.3989 70.9709 54.6466 54.4758 36.2067C54.4758 36.2067 69.1689 50.9823 72.6343 59.0202C72.0798 60.2023 69.0303 62.8028 69.0303 62.8028L73.8818 70.1315L69.0303 89.3989Z" fill="#2E3B45"/>
<path d="M34.3765 37.5071C34.3765 37.5071 26.8913 39.8712 21.624 42.8263L25.7824 83.9616C25.7824 83.9616 26.0596 105.593 23.1487 113.04C20.2378 120.487 20.6537 129.47 20.6537 129.47C20.6537 129.47 31.327 135.144 54.4756 132.544C54.4756 132.544 54.4756 95.3093 53.0894 75.4508C51.7033 55.5924 43.1092 50.0368 34.3765 37.5071Z" fill="#435663"/>
<path d="M34.3771 37.5071L36.1791 64.1032L44.6346 67.6493L40.6148 75.4509L53.9218 92.4724C53.9218 92.5906 60.8525 57.7201 34.3771 37.5071Z" fill="#2E3B45"/>
<path d="M54.4759 52.7556C56.2779 58.784 57.5254 64.8124 58.6343 70.8409C59.7432 76.8693 60.5749 83.016 61.1294 89.0444C61.4066 92.1178 61.6838 95.1911 61.8225 98.2644C61.9611 99.8011 62.0997 101.338 62.0997 102.874C62.0997 104.411 62.2383 105.948 62.2383 107.484L62.3769 109.73V111.976L62.5155 116.704C62.5155 119.778 62.5155 122.851 62.6541 125.924C63.2086 122.851 63.6244 119.778 63.9017 116.704C64.0403 113.631 64.4561 110.558 64.4561 107.484C64.7334 101.338 64.3175 95.0729 63.9017 88.9262C63.2086 82.7796 62.2383 76.6329 60.7135 70.6045C59.1888 64.4578 57.2482 58.4294 54.4759 52.7556Z" fill="#5B88A8"/>
<path d="M54.8926 37.1524C54.754 31.8332 55.0313 26.0411 55.0313 26.0411L37.4272 20.3673C37.4272 20.3673 36.1797 36.4431 36.0411 37.8616C35.9025 39.2801 42.9718 44.2446 48.5164 45.7813C49.7639 46.1359 50.7342 46.3723 51.4273 46.3723L54.3382 52.6372L55.5857 45.7813C55.7243 46.0177 57.3877 42.9444 54.8926 37.1524Z" fill="#FFBE92"/>
<path d="M55.7246 46.0178L60.2988 47.9091C60.2988 47.9091 59.0513 38.3345 55.1701 34.9066L54.6156 36.2068C54.477 36.2068 56.8335 43.7719 55.7246 46.0178Z" fill="#E6F5FF"/>
<path d="M36.3178 36.2066C36.3178 36.2066 38.8129 44.0081 51.5654 46.4904L47.407 50.9822C47.407 50.9822 37.8426 46.9632 32.7139 39.1617C32.7139 39.1617 33.9614 37.5069 36.3178 36.2066Z" fill="#E6F5FF"/>
<path d="M72.6342 94.9548C76.9313 94.9548 82.3372 93.0635 83.7234 94.2455C85.1095 95.4276 80.8125 97.3189 75.5451 97.5553C75.5451 97.5553 76.9313 98.7374 80.5353 98.0281C84.1392 97.3189 85.3868 97.3189 85.9412 98.1463C86.4957 98.8556 85.1095 100.274 83.7234 100.629C81.3669 101.338 77.4857 101.574 75.2679 101.574C75.2679 101.574 79.4263 101.811 82.8917 101.574C86.3571 101.338 84.9709 103.584 83.0303 103.938C81.0897 104.293 76.2382 103.938 76.2382 103.938C76.2382 103.938 79.8422 104.766 81.6442 104.884C83.4462 105.002 83.3075 105.83 83.3075 106.421C83.3075 107.012 80.8125 107.248 75.6838 106.657C70.555 106.066 65.0104 104.411 64.3174 100.983C63.4857 97.5553 65.4263 96.3732 67.3669 95.073C69.3075 93.7727 73.3273 91.9996 73.3273 91.9996L72.6342 94.9548Z" fill="#FFBE92"/>
<path d="M62.5151 106.302L64.733 106.184C64.733 106.184 68.0597 99.6831 65.426 94.6003L63.9013 93.6547L62.5151 106.302Z" fill="#E6F5FF"/>
<path d="M21.6248 42.9446C21.6248 42.9446 30.4961 52.1646 28.0011 69.6589C28.0011 69.6589 27.5852 72.8504 25.7832 84.0799C25.6446 84.9074 25.9219 87.3897 26.4763 88.0989C29.6645 91.8815 52.9517 90.8176 63.4864 93.1817C63.625 93.1817 63.7636 93.2999 63.7636 93.4181C64.0408 94.7184 65.2884 101.101 62.2388 106.657C62.1002 106.775 61.9616 106.893 61.6844 106.893C58.6349 106.302 10.2584 112.804 8.45644 100.629C8.45644 100.629 3.88216 73.4415 6.93168 61.8574C9.98119 50.2733 12.8921 45.5451 21.6248 42.9446Z" fill="#2E3B45"/>
<path d="M112.001 57.2473L79.1493 66.9401L69.0305 110.912L101.882 101.22L112.001 57.2473Z" fill="white"/>
<path d="M103.13 85.9712C105.764 85.6166 108.12 87.3897 107.981 89.6356C107.843 92.5907 107.288 95.9005 105.764 97.319C103.407 99.4467 99.6646 99.2102 99.3874 98.2646C99.1101 97.319 102.853 95.7823 102.853 95.7823C102.853 95.7823 98.6943 96.6097 98.8329 94.7184C99.1101 92.8272 103.823 93.0636 103.823 93.0636C103.823 93.0636 98.5557 93.891 98.2784 92.2361C98.0012 90.463 104.1 89.7538 104.1 89.7538C104.1 89.7538 97.724 90.5813 97.4468 88.2171C97.3081 87.0351 100.358 86.3259 103.13 85.9712Z" fill="#FFBE92"/>
<path d="M60.1594 3.81858C59.3277 3.22756 58.4961 2.75474 57.5258 2.40012C45.8821 -1.38244 35.2088 1.57269 33.4068 14.457C31.6049 27.8142 50.8723 37.507 57.3871 38.098C63.902 38.689 67.3674 22.495 66.2585 14.9298C65.5654 9.0196 62.1 5.47345 60.1594 3.81858Z" fill="#FFBE92"/>
<path d="M65.7036 25.8048C65.7036 25.8048 60.159 23.5589 52.5352 26.8686C52.5352 26.8686 48.0996 22.6133 40.8916 20.3674C40.8916 20.3674 42.2778 26.3958 36.3174 24.7409C36.3174 24.7409 43.8025 39.0437 54.6145 40.5803C65.2878 42.117 67.9215 32.6606 65.7036 25.8048Z" fill="#3B2727"/>
</svg>
